#tb 0: 1/7
#media_type 0: video
#codec_id 0: rawvideo
#dimensions 0: 320x240
#sar 0: 1/1
0,          0,          0,        1,   230400, 0xbfb96366
0,          1,          1,        1,   230400, 0xe63ca6e9
0,          2,          2,        1,   230400, 0xc6acccc8
0,          3,          3,        1,   230400, 0x6ea1b629
0,          4,          4,        1,   230400, 0x508477ed
0,          5,          5,        1,   230400, 0x49d4d57c
0,          6,          6,        1,   230400, 0xd601a939
0,          7,          7,        1,   230400, 0x0a0288f3
0,          8,          8,        1,   230400, 0xa6da89f8
0,          9,          9,        1,   230400, 0x0490ac8e
0,         10,         10,        1,   230400, 0x1873ccd2
0,         11,         11,        1,   230400, 0x64ef9885
0,         12,         12,        1,   230400, 0x6b8fa2f0
0,         13,         13,        1,   230400, 0x8d9657a4
0,         14,         14,        1,   230400, 0xb4af4f21
0,         15,         15,        1,   230400, 0x64137e0e
0,         16,         16,        1,   230400, 0xb8b26ce2
0,         17,         17,        1,   230400, 0xee1e7b00
0,         18,         18,        1,   230400, 0x1c9b25d8
0,         19,         19,        1,   230400, 0xe0c761ab
0,         20,         20,        1,   230400, 0xe1cf0c14
0,         21,         21,        1,   230400, 0xea380055
0,         22,         22,        1,   230400, 0x6537716f
0,         23,         23,        1,   230400, 0x8d9b9380
0,         24,         24,        1,   230400, 0x9a04e333
0,         25,         25,        1,   230400, 0x78005375
0,         26,         26,        1,   230400, 0xc1cc9b9e
0,         27,         27,        1,   230400, 0x84fda020
0,         28,         28,        1,   230400, 0x711ef4ab
0,         29,         29,        1,   230400, 0xccd04c02
0,         30,         30,        1,   230400, 0xcf2a4bbd
0,         31,         31,        1,   230400, 0x6d0ef0c0
0,         32,         32,        1,   230400, 0x46141d09
0,         33,         33,        1,   230400, 0x3a3d3f71
0,         34,         34,        1,   230400, 0xe9e7f98f
0,         35,         35,        1,   230400, 0x0f618ebb
0,         36,         36,        1,   230400, 0x9c7d07b2
0,         37,         37,        1,   230400, 0x90f8e960
0,         38,         38,        1,   230400, 0xe3a856aa
0,         39,         39,        1,   230400, 0xc66dcd53
0,         40,         40,        1,   230400, 0xe7c1a281
0,         41,         41,        1,   230400, 0xff484046
0,         42,         42,        1,   230400, 0x1f56e486
0,         43,         43,        1,   230400, 0x46bba179
0,         44,         44,        1,   230400, 0x05a05e03
0,         45,         45,        1,   230400, 0x552d3d32
0,         46,         46,        1,   230400, 0x0899531d
0,         47,         47,        1,   230400, 0x6321c950
0,         48,         48,        1,   230400, 0xed67b3cc
0,         49,         49,        1,   230400, 0x37ec807d
0,         50,         50,        1,   230400, 0xc6af1344
0,         51,         51,        1,   230400, 0x2bc9132b
0,         52,         52,        1,   230400, 0x6024e553
0,         53,         53,        1,   230400, 0xd7cef4f3
0,         54,         54,        1,   230400, 0xf7f6eb0d
0,         55,         55,        1,   230400, 0x0a2ed09e
0,         56,         56,        1,   230400, 0x8c6883aa
0,         57,         57,        1,   230400, 0x8542f554
0,         58,         58,        1,   230400, 0xbebf972f
0,         59,         59,        1,   230400, 0xf6f5f05f
0,         60,         60,        1,   230400, 0xa4047f4a
0,         61,         61,        1,   230400, 0x2b3f3d82
0,         62,         62,        1,   230400, 0x99d9049a
0,         63,         63,        1,   230400, 0xe74e5520
0,         64,         64,        1,   230400, 0x04e2cd3d
0,         65,         65,        1,   230400, 0x2324e05e
0,         66,         66,        1,   230400, 0x4e4e3400
0,         67,         67,        1,   230400, 0xdd547c3e
0,         68,         68,        1,   230400, 0x1c6c13e4
0,         69,         69,        1,   230400, 0xf7d2d98b
